<svg width="24" height="24" viewBox="0 0 24 24" fill="none" xmlns="http://www.w3.org/2000/svg">
<g id="United Kingdom" clip-path="url(#clip0_454_6821)">
<path id="Vector" d="M12 24C18.6274 24 24 18.6274 24 12C24 5.37258 18.6274 0 12 0C5.37258 0 0 5.37258 0 12C0 18.6274 5.37258 24 12 24Z" fill="#F0F0F0"/>
<g id="Group">
<path id="Vector_2" d="M2.47886 4.69409C1.53625 5.92048 0.82548 7.334 0.411621 8.86958H6.65434L2.47886 4.69409Z" fill="#0052B4"/>
<path id="Vector_3" d="M23.5864 8.86953C23.1725 7.334 22.4617 5.92048 21.5191 4.69409L17.3438 8.86953H23.5864Z" fill="#0052B4"/>
<path id="Vector_4" d="M0.411621 15.1304C0.825527 16.6659 1.53629 18.0794 2.47886 19.3058L6.6542 15.1304H0.411621Z" fill="#0052B4"/>
<path id="Vector_5" d="M19.3058 2.48061C18.0794 1.538 16.6659 0.827236 15.1304 0.41333V6.656L19.3058 2.48061Z" fill="#0052B4"/>
<path id="Vector_6" d="M4.69287 21.5193C5.91926 22.4619 7.33278 23.1727 8.86831 23.5866V17.344L4.69287 21.5193Z" fill="#0052B4"/>
<path id="Vector_7" d="M8.86826 0.41333C7.33273 0.827236 5.91921 1.538 4.69287 2.48056L8.86826 6.65595V0.41333Z" fill="#0052B4"/>
<path id="Vector_8" d="M15.1304 23.5866C16.6659 23.1727 18.0794 22.4619 19.3058 21.5194L15.1304 17.344V23.5866Z" fill="#0052B4"/>
<path id="Vector_9" d="M17.3438 15.1304L21.5191 19.3058C22.4617 18.0795 23.1725 16.6659 23.5864 15.1304H17.3438Z" fill="#0052B4"/>
</g>
<g id="Group_2">
<path id="Vector_10" d="M23.8984 10.4348H13.5653H13.5653V0.101578C13.0529 0.034875 12.5305 0 12 0C11.4694 0 10.9471 0.034875 10.4348 0.101578V10.4347V10.4347H0.101578C0.034875 10.9471 0 11.4695 0 12C0 12.5306 0.034875 13.0529 0.101578 13.5652H10.4347H10.4347V23.8984C10.9471 23.9651 11.4694 24 12 24C12.5305 24 13.0529 23.9652 13.5652 23.8984V13.5653V13.5653H23.8984C23.9651 13.0529 24 12.5306 24 12C24 11.4695 23.9651 10.9471 23.8984 10.4348Z" fill="#D80027"/>
<path id="Vector_11" d="M15.1304 15.1304L20.4852 20.4852C20.7315 20.239 20.9664 19.9817 21.1906 19.7148L16.6061 15.1304H15.1304V15.1304Z" fill="#D80027"/>
<path id="Vector_12" d="M8.87048 15.1306H8.87039L3.51562 20.4854C3.76181 20.7317 4.0192 20.9666 4.28602 21.1908L8.87048 16.6062V15.1306Z" fill="#D80027"/>
<path id="Vector_13" d="M8.87025 8.8696V8.86951L3.51543 3.51465C3.26915 3.76084 3.03421 4.01823 2.81006 4.28504L7.39457 8.86955L8.87025 8.8696Z" fill="#D80027"/>
<path id="Vector_14" d="M15.1304 8.86956L20.4852 3.51465C20.239 3.26837 19.9817 3.03344 19.7148 2.80933L15.1304 7.39384V8.86956Z" fill="#D80027"/>
</g>
</g>
<defs>
<clipPath id="clip0_454_6821">
<rect width="24" height="24" fill="white"/>
</clipPath>
</defs>
</svg>
