<svg width="71" height="71" viewBox="0 0 71 71" fill="none" xmlns="http://www.w3.org/2000/svg">
<g clip-path="url(#clip0_297_35292)">
<path d="M18 0.5C15.5938 0.5 13.625 2.46875 13.625 4.875V66.125C13.625 68.5312 15.5938 70.5 18 70.5H61.75C64.1562 70.5 66.125 68.5312 66.125 66.125V18L48.625 0.5H18Z" fill="#E2E5E7"/>
<path d="M53 18H66.125L48.625 0.5V13.625C48.625 16.0312 50.5938 18 53 18Z" fill="#B0B7BD"/>
<path d="M66.125 31.125L53 18H66.125V31.125Z" fill="#CAD1D8"/>
<path d="M57.375 57.375C57.375 58.5781 56.3906 59.5625 55.1875 59.5625H7.0625C5.85938 59.5625 4.875 58.5781 4.875 57.375V35.5C4.875 34.2969 5.85938 33.3125 7.0625 33.3125H55.1875C56.3906 33.3125 57.375 34.2969 57.375 35.5V57.375Z" fill="#F15642"/>
<path d="M14.4102 41.9465C14.4102 41.369 14.8652 40.739 15.598 40.739H19.6383C21.9133 40.739 23.9608 42.2615 23.9608 45.1796C23.9608 47.9446 21.9133 49.4846 19.6383 49.4846H16.718V51.7946C16.718 52.5646 16.228 53 15.598 53C15.0205 53 14.4102 52.5646 14.4102 51.7946V41.9465ZM16.718 42.9418V47.2993H19.6383C20.8108 47.2993 21.7383 46.2646 21.7383 45.1796C21.7383 43.9568 20.8108 42.9418 19.6383 42.9418H16.718Z" fill="white"/>
<path d="M27.3872 52.9999C26.8097 52.9999 26.1797 52.6849 26.1797 51.9171V41.9815C26.1797 41.3537 26.8097 40.8965 27.3872 40.8965H31.3925C39.3856 40.8965 39.2106 52.9999 31.55 52.9999H27.3872ZM28.4897 43.0315V50.8671H31.3925C36.1153 50.8671 36.3253 43.0315 31.3925 43.0315H28.4897Z" fill="white"/>
<path d="M42.044 43.1715V45.9518H46.5043C47.1343 45.9518 47.7643 46.5818 47.7643 47.1921C47.7643 47.7696 47.1343 48.2421 46.5043 48.2421H42.044V51.9149C42.044 52.5274 41.6087 52.9977 40.9962 52.9977C40.2262 52.9977 39.7559 52.5274 39.7559 51.9149V41.9793C39.7559 41.3515 40.2284 40.8943 40.9962 40.8943H47.1365C47.9065 40.8943 48.3615 41.3515 48.3615 41.9793C48.3615 42.5393 47.9065 43.1693 47.1365 43.1693H42.044V43.1715Z" fill="white"/>
<path d="M55.1875 59.5625H13.625V61.75H55.1875C56.3906 61.75 57.375 60.7656 57.375 59.5625V57.375C57.375 58.5781 56.3906 59.5625 55.1875 59.5625Z" fill="#CAD1D8"/>
</g>
<defs>
<clipPath id="clip0_297_35292">
<rect width="70" height="70" fill="white" transform="translate(0.5 0.5)"/>
</clipPath>
</defs>
</svg>
