<svg width="562" height="359" viewBox="0 0 562 359" fill="none" xmlns="http://www.w3.org/2000/svg">
<path opacity="0.77" d="M482.473 131.593C482.754 127.786 482.754 123.908 482.508 119.995C479.383 74.2375 439.878 39.6547 394.298 42.8274C386.713 43.3562 379.444 44.9073 372.597 47.3045C353.248 16.811 318.343 -2.40168 279.857 0.242267C247.726 2.46318 220.125 19.4902 203.13 44.2023C191.296 40.4302 178.549 38.7381 165.416 39.6547C118.045 42.9332 80.5064 78.2915 72.4298 123.133C29.1676 128.562 -2.82261 167.022 0.197319 211.229C2.86609 250.289 32.0119 281.17 68.848 287.445C84.1584 313.955 113.585 330.912 146.137 328.691C156.215 327.986 165.767 325.518 174.44 321.57C194.596 346.247 225.884 361.088 260.017 358.761C291.761 356.576 319.081 339.972 336.112 315.718C352.546 335.424 377.794 347.269 405.289 345.365C436.437 343.215 462.352 324.037 474.642 297.527C478.048 297.704 481.455 297.704 484.931 297.492C530.511 294.355 564.959 254.696 561.799 208.938C558.919 166.141 524.225 133.18 482.473 131.593Z" fill="#FFF173"/>
</svg>
